<mxfile host="app.diagrams.net" agent="Mozilla/5.0 (Windows NT 10.0; Win64; x64) AppleWebKit/537.36 (KHTML, like Gecko) Chrome/127.0.0.0 Safari/537.36" version="24.7.7">
  <diagram id="prtHgNgQTEPvFCAcTncT" name="Page-1">
    <mxGraphModel dx="1154" dy="513" grid="1" gridSize="10" guides="1" tooltips="1" connect="1" arrows="1" fold="1" page="1" pageScale="1" pageWidth="827" pageHeight="1169" math="0" shadow="0">
      <root>
        <mxCell id="0" />
        <mxCell id="1" parent="0" />
        <mxCell id="GOfvM1B0ZKZ93wvjMKwl-1" value="Lei de Ohm" style="swimlane;html=1;childLayout=stackLayout;resizeParent=1;resizeParentMax=0;horizontal=0;startSize=20;horizontalStack=0;" vertex="1" parent="1">
          <mxGeometry x="120" y="40" width="590" height="900" as="geometry" />
        </mxCell>
        <mxCell id="GOfvM1B0ZKZ93wvjMKwl-6" value="&lt;font color=&quot;#ffffff&quot;&gt;ohm.html&lt;/font&gt;" style="swimlane;html=1;startSize=20;horizontal=0;fillColor=#60A917;" vertex="1" parent="GOfvM1B0ZKZ93wvjMKwl-1">
          <mxGeometry x="20" width="570" height="170" as="geometry" />
        </mxCell>
        <mxCell id="GOfvM1B0ZKZ93wvjMKwl-67" style="edgeStyle=orthogonalEdgeStyle;rounded=0;orthogonalLoop=1;jettySize=auto;html=1;entryX=0;entryY=0.5;entryDx=0;entryDy=0;" edge="1" parent="GOfvM1B0ZKZ93wvjMKwl-6" source="GOfvM1B0ZKZ93wvjMKwl-9" target="GOfvM1B0ZKZ93wvjMKwl-16">
          <mxGeometry relative="1" as="geometry" />
        </mxCell>
        <mxCell id="GOfvM1B0ZKZ93wvjMKwl-9" value="Parâmetros a enviar:&lt;br&gt;&lt;ul&gt;&lt;li&gt;&lt;b&gt;R&lt;/b&gt;&lt;/li&gt;&lt;li&gt;&lt;b&gt;VCC&lt;/b&gt;&lt;/li&gt;&lt;li&gt;&lt;b&gt;OK&lt;/b&gt;&lt;/li&gt;&lt;li&gt;&lt;b&gt;Reset/STOP&lt;/b&gt;&lt;/li&gt;&lt;li&gt;&lt;b&gt;Medir tensão&lt;/b&gt;&lt;/li&gt;&lt;li&gt;&lt;b&gt;Medir corrente&lt;/b&gt;&lt;/li&gt;&lt;/ul&gt;" style="rounded=0;whiteSpace=wrap;html=1;fontFamily=Helvetica;fontSize=12;fontColor=#000000;align=left;" vertex="1" parent="GOfvM1B0ZKZ93wvjMKwl-6">
          <mxGeometry x="50" y="20" width="180" height="130" as="geometry" />
        </mxCell>
        <mxCell id="GOfvM1B0ZKZ93wvjMKwl-86" style="edgeStyle=orthogonalEdgeStyle;rounded=0;orthogonalLoop=1;jettySize=auto;html=1;exitX=0;exitY=0;exitDx=0;exitDy=0;entryX=1;entryY=0.25;entryDx=0;entryDy=0;" edge="1" parent="GOfvM1B0ZKZ93wvjMKwl-6" source="GOfvM1B0ZKZ93wvjMKwl-16" target="GOfvM1B0ZKZ93wvjMKwl-9">
          <mxGeometry relative="1" as="geometry" />
        </mxCell>
        <mxCell id="GOfvM1B0ZKZ93wvjMKwl-16" value="Validade parâmetros" style="rhombus;whiteSpace=wrap;html=1;fontFamily=Helvetica;fontSize=12;fontColor=#000000;align=center;" vertex="1" parent="GOfvM1B0ZKZ93wvjMKwl-6">
          <mxGeometry x="300" y="40" width="90" height="90" as="geometry" />
        </mxCell>
        <mxCell id="GOfvM1B0ZKZ93wvjMKwl-13" value="&lt;font color=&quot;#ffffff&quot;&gt;views.py&lt;/font&gt;" style="swimlane;html=1;startSize=20;horizontal=0;fillColor=#60A917;" vertex="1" parent="GOfvM1B0ZKZ93wvjMKwl-1">
          <mxGeometry x="20" y="170" width="570" height="110" as="geometry" />
        </mxCell>
        <mxCell id="GOfvM1B0ZKZ93wvjMKwl-15" value="&lt;div style=&quot;line-height: 19px;&quot;&gt;&lt;font style=&quot;font-size: 9px;&quot;&gt;&amp;nbsp;measurement_result = configVB.test_parameters(parametros)&lt;/font&gt;&lt;/div&gt;" style="rounded=0;whiteSpace=wrap;html=1;fontFamily=Helvetica;fontSize=12;fontColor=#000000;align=center;" vertex="1" parent="GOfvM1B0ZKZ93wvjMKwl-13">
          <mxGeometry x="40" y="20" width="260" height="20" as="geometry" />
        </mxCell>
        <mxCell id="GOfvM1B0ZKZ93wvjMKwl-17" value="&lt;font color=&quot;#ffffff&quot;&gt;configVB.py&lt;/font&gt;" style="swimlane;html=1;startSize=20;horizontal=0;fillColor=#60A917;" vertex="1" parent="GOfvM1B0ZKZ93wvjMKwl-1">
          <mxGeometry x="20" y="280" width="570" height="120" as="geometry" />
        </mxCell>
        <mxCell id="dNxyNK7c78bLwvsdeMH5-26" value="&lt;div style=&quot;line-height: 19px;&quot;&gt;&lt;font style=&quot;font-size: 9px;&quot;&gt;def test_parameters(parâmetros)&lt;/font&gt;&lt;/div&gt;" style="rounded=0;whiteSpace=wrap;html=1;fontFamily=Helvetica;fontSize=12;fontColor=#000000;align=center;" parent="GOfvM1B0ZKZ93wvjMKwl-17" vertex="1">
          <mxGeometry x="40" y="35" width="140" height="20" as="geometry" />
        </mxCell>
        <mxCell id="GOfvM1B0ZKZ93wvjMKwl-79" style="edgeStyle=orthogonalEdgeStyle;rounded=0;orthogonalLoop=1;jettySize=auto;html=1;exitX=0.5;exitY=1;exitDx=0;exitDy=0;" edge="1" parent="GOfvM1B0ZKZ93wvjMKwl-17" source="dNxyNK7c78bLwvsdeMH5-28">
          <mxGeometry relative="1" as="geometry">
            <mxPoint x="520" y="380" as="targetPoint" />
            <Array as="points">
              <mxPoint x="255" y="100" />
              <mxPoint x="520" y="100" />
            </Array>
          </mxGeometry>
        </mxCell>
        <mxCell id="GOfvM1B0ZKZ93wvjMKwl-80" value="RESET/STOP" style="edgeLabel;html=1;align=center;verticalAlign=middle;resizable=0;points=[];" vertex="1" connectable="0" parent="GOfvM1B0ZKZ93wvjMKwl-79">
          <mxGeometry x="-0.5373" relative="1" as="geometry">
            <mxPoint x="-2" as="offset" />
          </mxGeometry>
        </mxCell>
        <mxCell id="dNxyNK7c78bLwvsdeMH5-28" value="&lt;p&gt;&lt;font style=&quot;font-size: 9px;&quot;&gt;teste&amp;nbsp;&lt;br&gt;&lt;/font&gt;&lt;span style=&quot;font-size: 9px; background-color: initial;&quot;&gt;parâmetros&lt;/span&gt;&lt;/p&gt;" style="rhombus;whiteSpace=wrap;html=1;fontFamily=Helvetica;fontSize=12;fontColor=#000000;align=center;" parent="GOfvM1B0ZKZ93wvjMKwl-17" vertex="1">
          <mxGeometry x="220" y="10" width="70" height="70" as="geometry" />
        </mxCell>
        <mxCell id="GOfvM1B0ZKZ93wvjMKwl-74" style="edgeStyle=orthogonalEdgeStyle;rounded=0;orthogonalLoop=1;jettySize=auto;html=1;entryX=0;entryY=0.5;entryDx=0;entryDy=0;" edge="1" parent="GOfvM1B0ZKZ93wvjMKwl-17" source="dNxyNK7c78bLwvsdeMH5-26" target="dNxyNK7c78bLwvsdeMH5-28">
          <mxGeometry relative="1" as="geometry" />
        </mxCell>
        <mxCell id="GOfvM1B0ZKZ93wvjMKwl-21" value="&lt;font color=&quot;#ffffff&quot;&gt;configRelays.py&lt;/font&gt;" style="swimlane;html=1;startSize=20;horizontal=0;fillColor=#60A917;" vertex="1" parent="GOfvM1B0ZKZ93wvjMKwl-1">
          <mxGeometry x="20" y="400" width="570" height="110" as="geometry" />
        </mxCell>
        <mxCell id="GOfvM1B0ZKZ93wvjMKwl-49" value="&lt;font color=&quot;#ffffff&quot;&gt;VirtualBench&lt;/font&gt;" style="swimlane;html=1;startSize=20;horizontal=0;fillColor=#0000FF;" vertex="1" parent="GOfvM1B0ZKZ93wvjMKwl-1">
          <mxGeometry x="20" y="510" width="570" height="190" as="geometry" />
        </mxCell>
        <mxCell id="GOfvM1B0ZKZ93wvjMKwl-81" value="VirtualBench efectua medições de tensão ou corrente" style="rounded=0;whiteSpace=wrap;html=1;" vertex="1" parent="GOfvM1B0ZKZ93wvjMKwl-49">
          <mxGeometry x="260" y="70" width="170" height="40" as="geometry" />
        </mxCell>
        <mxCell id="GOfvM1B0ZKZ93wvjMKwl-53" value="&lt;font color=&quot;#ffffff&quot;&gt;RaspberryPI&lt;/font&gt;" style="swimlane;html=1;startSize=20;horizontal=0;fillColor=#FF0000;strokeColor=#FFFFFF;" vertex="1" parent="GOfvM1B0ZKZ93wvjMKwl-1">
          <mxGeometry x="20" y="700" width="570" height="200" as="geometry" />
        </mxCell>
        <mxCell id="GOfvM1B0ZKZ93wvjMKwl-54" value="" style="edgeStyle=orthogonalEdgeStyle;rounded=0;orthogonalLoop=1;jettySize=auto;html=1;endArrow=classic;endFill=1;" edge="1" parent="GOfvM1B0ZKZ93wvjMKwl-53" source="GOfvM1B0ZKZ93wvjMKwl-55" target="GOfvM1B0ZKZ93wvjMKwl-56">
          <mxGeometry relative="1" as="geometry" />
        </mxCell>
        <mxCell id="GOfvM1B0ZKZ93wvjMKwl-55" value="" style="rounded=0;whiteSpace=wrap;html=1;fontFamily=Helvetica;fontSize=12;fontColor=#000000;align=center;" vertex="1" parent="GOfvM1B0ZKZ93wvjMKwl-53">
          <mxGeometry x="240" y="20" width="80" height="60" as="geometry" />
        </mxCell>
        <mxCell id="GOfvM1B0ZKZ93wvjMKwl-56" value="" style="rhombus;whiteSpace=wrap;html=1;fontFamily=Helvetica;fontSize=12;fontColor=#000000;align=center;" vertex="1" parent="GOfvM1B0ZKZ93wvjMKwl-53">
          <mxGeometry x="360" y="30" width="40" height="40" as="geometry" />
        </mxCell>
        <mxCell id="GOfvM1B0ZKZ93wvjMKwl-61" value="configrelays.py" style="swimlane;html=1;startSize=20;horizontal=0;" vertex="1" parent="GOfvM1B0ZKZ93wvjMKwl-53">
          <mxGeometry x="20" width="550" height="200" as="geometry" />
        </mxCell>
        <mxCell id="GOfvM1B0ZKZ93wvjMKwl-62" value="" style="edgeStyle=orthogonalEdgeStyle;rounded=0;orthogonalLoop=1;jettySize=auto;html=1;endArrow=classic;endFill=1;" edge="1" parent="GOfvM1B0ZKZ93wvjMKwl-61" source="GOfvM1B0ZKZ93wvjMKwl-63" target="GOfvM1B0ZKZ93wvjMKwl-64">
          <mxGeometry relative="1" as="geometry" />
        </mxCell>
        <mxCell id="GOfvM1B0ZKZ93wvjMKwl-63" value="" style="rounded=0;whiteSpace=wrap;html=1;fontFamily=Helvetica;fontSize=12;fontColor=#000000;align=center;" vertex="1" parent="GOfvM1B0ZKZ93wvjMKwl-61">
          <mxGeometry x="240" y="20" width="80" height="60" as="geometry" />
        </mxCell>
        <mxCell id="GOfvM1B0ZKZ93wvjMKwl-64" value="" style="rhombus;whiteSpace=wrap;html=1;fontFamily=Helvetica;fontSize=12;fontColor=#000000;align=center;" vertex="1" parent="GOfvM1B0ZKZ93wvjMKwl-61">
          <mxGeometry x="360" y="30" width="40" height="40" as="geometry" />
        </mxCell>
        <mxCell id="GOfvM1B0ZKZ93wvjMKwl-70" style="edgeStyle=orthogonalEdgeStyle;rounded=0;orthogonalLoop=1;jettySize=auto;html=1;exitX=0.5;exitY=1;exitDx=0;exitDy=0;entryX=0.5;entryY=0;entryDx=0;entryDy=0;" edge="1" parent="GOfvM1B0ZKZ93wvjMKwl-1" source="GOfvM1B0ZKZ93wvjMKwl-16" target="GOfvM1B0ZKZ93wvjMKwl-15">
          <mxGeometry relative="1" as="geometry">
            <Array as="points">
              <mxPoint x="365" y="160" />
              <mxPoint x="190" y="160" />
            </Array>
          </mxGeometry>
        </mxCell>
        <mxCell id="GOfvM1B0ZKZ93wvjMKwl-71" value="Sim: Envia parâmetros" style="edgeLabel;html=1;align=center;verticalAlign=middle;resizable=0;points=[];" vertex="1" connectable="0" parent="GOfvM1B0ZKZ93wvjMKwl-70">
          <mxGeometry x="0.0689" y="3" relative="1" as="geometry">
            <mxPoint y="-3" as="offset" />
          </mxGeometry>
        </mxCell>
        <mxCell id="GOfvM1B0ZKZ93wvjMKwl-72" style="edgeStyle=orthogonalEdgeStyle;rounded=0;orthogonalLoop=1;jettySize=auto;html=1;" edge="1" parent="GOfvM1B0ZKZ93wvjMKwl-1" source="GOfvM1B0ZKZ93wvjMKwl-15" target="dNxyNK7c78bLwvsdeMH5-26">
          <mxGeometry relative="1" as="geometry">
            <Array as="points">
              <mxPoint x="190" y="220" />
              <mxPoint x="130" y="220" />
            </Array>
          </mxGeometry>
        </mxCell>
        <mxCell id="GOfvM1B0ZKZ93wvjMKwl-82" style="edgeStyle=orthogonalEdgeStyle;rounded=0;orthogonalLoop=1;jettySize=auto;html=1;exitX=0;exitY=1;exitDx=0;exitDy=0;entryX=0;entryY=0.5;entryDx=0;entryDy=0;" edge="1" parent="GOfvM1B0ZKZ93wvjMKwl-1" source="dNxyNK7c78bLwvsdeMH5-28" target="GOfvM1B0ZKZ93wvjMKwl-81">
          <mxGeometry relative="1" as="geometry" />
        </mxCell>
        <mxCell id="GOfvM1B0ZKZ93wvjMKwl-83" value="Medições" style="edgeLabel;html=1;align=center;verticalAlign=middle;resizable=0;points=[];" vertex="1" connectable="0" parent="GOfvM1B0ZKZ93wvjMKwl-82">
          <mxGeometry x="-0.8369" relative="1" as="geometry">
            <mxPoint x="3" y="25" as="offset" />
          </mxGeometry>
        </mxCell>
        <mxCell id="GOfvM1B0ZKZ93wvjMKwl-84" style="edgeStyle=orthogonalEdgeStyle;rounded=0;orthogonalLoop=1;jettySize=auto;html=1;exitX=0;exitY=0.75;exitDx=0;exitDy=0;entryX=0;entryY=0.5;entryDx=0;entryDy=0;" edge="1" parent="GOfvM1B0ZKZ93wvjMKwl-1" source="GOfvM1B0ZKZ93wvjMKwl-81" target="GOfvM1B0ZKZ93wvjMKwl-15">
          <mxGeometry relative="1" as="geometry">
            <Array as="points">
              <mxPoint x="258" y="610" />
              <mxPoint x="258" y="660" />
              <mxPoint x="50" y="660" />
              <mxPoint x="50" y="200" />
            </Array>
          </mxGeometry>
        </mxCell>
        <mxCell id="GOfvM1B0ZKZ93wvjMKwl-85" value="return measurement_result" style="edgeLabel;html=1;align=center;verticalAlign=middle;resizable=0;points=[];" vertex="1" connectable="0" parent="GOfvM1B0ZKZ93wvjMKwl-84">
          <mxGeometry x="-0.622" y="-2" relative="1" as="geometry">
            <mxPoint x="-30" as="offset" />
          </mxGeometry>
        </mxCell>
        <mxCell id="GOfvM1B0ZKZ93wvjMKwl-77" style="edgeStyle=orthogonalEdgeStyle;rounded=0;orthogonalLoop=1;jettySize=auto;html=1;exitX=0.75;exitY=0;exitDx=0;exitDy=0;entryX=1;entryY=0;entryDx=0;entryDy=0;" edge="1" parent="1" source="GOfvM1B0ZKZ93wvjMKwl-76" target="GOfvM1B0ZKZ93wvjMKwl-9">
          <mxGeometry relative="1" as="geometry">
            <Array as="points">
              <mxPoint x="680" y="60" />
            </Array>
          </mxGeometry>
        </mxCell>
        <mxCell id="GOfvM1B0ZKZ93wvjMKwl-76" value="Configura o VirtualBench" style="rounded=0;whiteSpace=wrap;html=1;" vertex="1" parent="1">
          <mxGeometry x="620" y="670" width="80" height="40" as="geometry" />
        </mxCell>
        <mxCell id="GOfvM1B0ZKZ93wvjMKwl-75" style="edgeStyle=orthogonalEdgeStyle;rounded=0;orthogonalLoop=1;jettySize=auto;html=1;" edge="1" parent="1" source="dNxyNK7c78bLwvsdeMH5-28" target="GOfvM1B0ZKZ93wvjMKwl-76">
          <mxGeometry relative="1" as="geometry">
            <mxPoint x="639.9999999999998" y="700" as="targetPoint" />
          </mxGeometry>
        </mxCell>
        <mxCell id="GOfvM1B0ZKZ93wvjMKwl-78" value="OK" style="edgeLabel;html=1;align=center;verticalAlign=middle;resizable=0;points=[];" vertex="1" connectable="0" parent="GOfvM1B0ZKZ93wvjMKwl-75">
          <mxGeometry x="-0.7526" y="-3" relative="1" as="geometry">
            <mxPoint x="-1" y="-3" as="offset" />
          </mxGeometry>
        </mxCell>
      </root>
    </mxGraphModel>
  </diagram>
</mxfile>
